<svg xmlns="http://www.w3.org/2000/svg" fill="none" viewBox="0 0 24 24"><path stroke="#000000" stroke-linecap="round" stroke-linejoin="round" d="M12.7462 20.7609H9.26853V22.7522C9.26853 22.8842 9.21608 23.0108 9.12272 23.1042C9.02937 23.1975 8.90275 23.25 8.77072 23.25H6.77948C6.64746 23.25 6.52084 23.1975 6.42748 23.1042C6.33412 23.0108 6.28168 22.8842 6.28168 22.7522V20.7978C5.60081 20.255 5.11505 19.5054 4.89777 18.6622"></path><path stroke="#000000" stroke-linecap="round" stroke-linejoin="round" d="M11.5017 18.5457C11.4597 18.9977 11.5563 19.4517 11.7786 19.8474C12.0009 20.2431 12.3384 20.5617 12.7462 20.761V22.7522C12.7462 22.8842 12.7987 23.0108 12.892 23.1042C12.9854 23.1976 13.112 23.25 13.244 23.25H15.2353C15.3673 23.25 15.4939 23.1976 15.5873 23.1042C15.6806 23.0108 15.7331 22.8842 15.7331 22.7522V20.761"></path><path stroke="#000000" stroke-linecap="round" stroke-linejoin="round" d="M15.7271 20.7609H22.8956C23.2032 20.7609 23.3476 20.3278 23.0708 20.1934C16.3573 16.9079 18.8404 11.7755 11.8104 11.2428C9.42585 11.0626 6.26476 13.256 5.74206 12.2096C5.13201 11.2758 4.82654 10.1758 4.86773 9.0612C4.90892 7.94658 5.29475 6.87215 5.97205 5.98596C6.77651 6.18508 8.72095 6.00388 9.00868 5.23426C9.36213 4.28843 9.21876 3.41726 8.49793 3.16637C8.49793 3.1365 7.10407 2.62276 7.10407 2.59189C7.10407 1.76852 6.50669 0.75 4.58017 0.75C2.5063 0.749005 0.781891 5.13968 0.781891 9.93458C0.781745 13.6821 1.46915 17.3979 2.80996 20.8973V22.7522C2.80996 22.8842 2.86241 23.0108 2.95577 23.1042C3.04913 23.1975 3.17575 23.25 3.30777 23.25H3.80558"></path><path stroke="#000000" d="M5.05408 3.53974C4.84788 3.53974 4.68073 3.37259 4.68073 3.16639C4.68073 2.96019 4.84788 2.79303 5.05408 2.79303"></path><path stroke="#000000" d="M5.05409 3.53974C5.26029 3.53974 5.42744 3.37259 5.42744 3.16639C5.42744 2.96019 5.26029 2.79303 5.05409 2.79303"></path></svg>
